<?xml version="1.0" encoding="iso-8859-1"?>
<!-- Generator: Adobe Illustrator 16.0.0, SVG Export Plug-In . SVG Version: 6.00 Build 0)  -->
<!DOCTYPE svg PUBLIC "-//W3C//DTD SVG 1.1//EN" "http://www.w3.org/Graphics/SVG/1.1/DTD/svg11.dtd">
<svg version="1.1" id="Capa_1" xmlns="http://www.w3.org/2000/svg" xmlns:xlink="http://www.w3.org/1999/xlink" x="0px" y="0px"
	 width="580.839px" height="580.84px" viewBox="0 0 580.839 580.84" style="enable-background:new 0 0 580.839 580.84;"
	 xml:space="preserve">
<g>
	<path d="M506.095,150.941c0-10.107-13.465-6.072-18.876-15.483c-5.393-9.456,10.107-13.5,0-31.001
		c-10.107-17.536-26.269-11.464-27.607-18.197c-1.34-6.742,0.66-14.135-16.215-27.626c-16.822-13.483-46.484-14.152-46.484-14.152
		S382.77-0.671,361.858,0.008c-20.875,0.679-49.153,20.206-61.966,21.724c-12.822,1.518-52.556-2.848-77.503,13.992
		c-24.92,16.84-17.625,26.197-26.277,39.073c-8.661,12.893,0,37.725,0,37.725s-13.474-8.759-18.188,0
		c-4.724,8.759,0,12.804,0,12.804s-21.582-21.563-80.869,18.197c-44.582,29.894-22.144,63.172-8.241,77.896
		c-4.795,25.947,0.786,52.207,5.081,63.288c0.206,0.714,0.366,1.447,0.509,2.179c-3.964,0.804-10.197,0.804-15.17-6.214
		c-2.107,10.125,9.67,11.625,16.09,11.741c0.696,6.741-0.152,14.062-4.759,20.938c-9.634,14.482-20.385,21.108-23.876,30.841
		c-4.955,13.535,21.045,15.893,21.045,15.893l0.054,5.143c0,0-8.322,8.055-6.545,14.376c2.339,8.429,19.126,5.464,19.126,5.464
		s-16.09,5.912-15.34,13.77c0.75,7.821,7.473,11.232,7.473,11.232s-15.572,30.644,7.34,37.34
		c22.911,6.732,69.413-21.215,75.467,11.447c5.848,22.572,31.965,77.932,22.894,88.289c-9.018,10.357-22.894,26.304-22.894,26.304
		l237.875,7.394c0,0-73.467-95.021-80.86-105.771c-5.894-8.607-26.653-37.93-21.26-64.52c9.526,6.714,22.027,12.857,29.938,6.393
		c-15.519-3.215-8.75-27.465-8.75-27.465s8.071,34.357,28.305,23.59c-18.09-2.982-12.805-25.59-12.805-25.59
		s18.18-20.912,24.93-17.52c6.75,3.357,4.715,9.43,9.429,0c4.714-9.446-2.019-15.518,4.054-20.465
		c6.054-4.964,46.502,4.286,64.002-6.5c17.537-10.786,20.912-7.375,16.197-38.395c4.59-10.946,46.484-33.019,46.484-61.332
		c0-28.304,7.393-52.546-6.732-70.064C497.327,167.129,506.095,161.058,506.095,150.941z"/>
</g>
<g>
</g>
<g>
</g>
<g>
</g>
<g>
</g>
<g>
</g>
<g>
</g>
<g>
</g>
<g>
</g>
<g>
</g>
<g>
</g>
<g>
</g>
<g>
</g>
<g>
</g>
<g>
</g>
<g>
</g>
</svg>
